<svg width="2781" height="2836" version="1.1" xmlns="http://www.w3.org/2000/svg" desc="Created with imagetracer.js version 1.2.6" ><path fill="rgb(67,108,245)" stroke="rgb(67,108,245)" stroke-width="1" opacity="0.9921568627450981" d="M 1412 490 L 1611.5 490 L 1612 490.5 L 1612 1108.5 Q 1616.1 1132.9 1632.5 1145 Q 1642.3 1152.2 1655.5 1156 L 1660.5 1157 L 1675.5 1157 Q 1693 1154 1703.5 1144 L 2019.5 833 L 2159 974.5 L 2159 976.5 L 1842.5 1288 L 1821.5 1306 Q 1793.1 1328.1 1756.5 1342 L 1718.5 1353 L 1700.5 1355 L 1699.5 1356 L 1691.5 1356 L 1690.5 1357 L 1666.5 1358 L 1665.5 1357 L 1637.5 1356 L 1614.5 1352 L 1577.5 1341 L 1558.5 1333 Q 1511.1 1310.9 1478 1274.5 Q 1449.1 1243.4 1431 1201.5 L 1418 1161.5 L 1414 1140.5 L 1413 1122.5 L 1412 1121.5 L 1412 490 Z " /><path fill="rgb(67,108,245)" stroke="rgb(67,108,245)" stroke-width="1" opacity="0.9921568627450981" d="M 947.5 649 L 964 664.5 L 1260 965.5 L 1284 994.5 Q 1307.2 1026.3 1320 1068.5 L 1324 1083.5 L 1328 1105.5 L 1328 1112.5 L 1329 1113.5 L 1330 1153.5 L 1329 1154.5 L 1329 1165.5 L 1328 1166.5 L 1328 1173.5 L 1327 1174.5 L 1325 1191.5 L 1320 1211.5 L 1307 1246.5 Q 1284.8 1295.8 1247.5 1330 Q 1202.2 1373.2 1131.5 1391 L 1108.5 1395 L 1084.5 1396 L 1083.5 1397 L 930.5 1397 L 929.5 1396 L 462 1396 L 462 1196.5 L 462.5 1196 L 1083.5 1196 Q 1105.4 1191.4 1117 1176.5 Q 1128.8 1162.8 1130 1138.5 L 1126 1120.5 L 1116 1104.5 L 805 789.5 L 947.5 649 Z " /><path fill="rgb(67,108,245)" stroke="rgb(67,108,245)" stroke-width="1" opacity="0.9921568627450981" d="M 1699.5 1439 L 2318.5 1439 L 2319 1439.5 L 2319 1639 L 1701.5 1639 L 1691.5 1641 L 1679.5 1646 L 1663 1660.5 L 1654 1677.5 L 1652 1685.5 L 1652 1703.5 Q 1655.5 1721 1666 1731.5 L 1973 2043.5 L 1975 2047.5 L 1832.5 2187 L 1518 1867.5 L 1502 1848.5 Q 1477.2 1816.8 1463 1774.5 L 1456 1748.5 L 1453 1731.5 L 1452 1713.5 L 1451 1712.5 L 1451 1680.5 L 1452 1679.5 L 1452 1669.5 L 1453 1668.5 L 1453 1661.5 L 1457 1639.5 Q 1463.2 1613.7 1473 1591.5 Q 1495.3 1540.8 1533.5 1506 Q 1565.2 1476.2 1608.5 1458 L 1627.5 1451 L 1649.5 1445 L 1672.5 1441 L 1698.5 1440 L 1699.5 1439 Z " /><path fill="rgb(67,108,245)" stroke="rgb(67,108,245)" stroke-width="1" opacity="0.9921568627450981" d="M 1090.5 1479 L 1133.5 1479 L 1134.5 1480 L 1142.5 1480 L 1170.5 1485 L 1200.5 1494 Q 1261.8 1516.7 1302 1560.5 Q 1330.9 1591.1 1349 1632.5 L 1357 1653.5 L 1364 1679.5 L 1367 1696.5 L 1367 1703.5 L 1368 1704.5 L 1368 1714.5 L 1369 1715.5 L 1369 2347 L 1169.5 2347 L 1169 2346.5 L 1169 1731.5 L 1167 1721.5 L 1161 1707.5 L 1148.5 1693 Q 1139.9 1685.6 1127.5 1682 L 1122.5 1681 L 1103.5 1681 Q 1092.1 1683.6 1083.5 1689 L 1063.5 1707 L 761.5 2003 L 652 1892.5 L 622 1861.5 L 622 1859.5 L 932.5 1554 L 954.5 1534 Q 981 1512.5 1014.5 1498 L 1042.5 1488 L 1068.5 1482 L 1089.5 1480 L 1090.5 1479 Z " /><path fill="rgb(0,0,0)" stroke="rgb(0,0,0)" stroke-width="1" opacity="0" d="M 0 0 L 2781 0 L 2781 2836 L 0 2836 L 0 0 Z M 1412 490 L 1412 1122 L 1413 1123 L 1414 1141 L 1418 1162 L 1431 1202 Q 1449 1243 1478 1275 Q 1511 1311 1559 1333 L 1578 1341 L 1615 1352 L 1638 1356 L 1666 1357 L 1667 1358 L 1691 1357 L 1692 1356 L 1700 1356 L 1701 1355 L 1719 1353 L 1757 1342 Q 1793 1328 1822 1306 L 1843 1288 L 2159 977 L 2159 975 L 2020 833 L 1704 1144 Q 1693 1154 1676 1157 L 1661 1157 L 1656 1156 Q 1642 1152 1633 1145 Q 1616 1133 1612 1109 L 1612 491 L 1612 490 L 1412 490 Z M 948 649 L 805 790 L 1116 1105 L 1126 1121 L 1130 1139 Q 1129 1163 1117 1177 Q 1105 1191 1084 1196 L 463 1196 L 462 1197 L 462 1396 L 930 1396 L 931 1397 L 1084 1397 L 1085 1396 L 1109 1395 L 1132 1391 Q 1202 1373 1248 1330 Q 1285 1296 1307 1247 L 1320 1212 L 1325 1192 L 1327 1175 L 1328 1174 L 1328 1167 L 1329 1166 L 1329 1155 L 1330 1154 L 1329 1114 L 1328 1113 L 1328 1106 L 1324 1084 L 1320 1069 Q 1307 1026 1284 995 L 1260 966 L 964 665 L 948 649 Z M 1700 1439 L 1699 1440 L 1673 1441 L 1650 1445 L 1628 1451 L 1609 1458 Q 1565 1476 1534 1506 Q 1495 1541 1473 1592 Q 1463 1614 1457 1640 L 1453 1662 L 1453 1669 L 1452 1670 L 1452 1680 L 1451 1681 L 1451 1713 L 1452 1714 L 1453 1732 L 1456 1749 L 1463 1775 Q 1477 1817 1502 1849 L 1518 1868 L 1833 2187 L 1975 2048 L 1973 2044 L 1666 1732 Q 1656 1721 1652 1704 L 1652 1686 L 1654 1678 L 1663 1661 L 1680 1646 L 1692 1641 L 1702 1639 L 2319 1639 L 2319 1440 L 2319 1439 L 1700 1439 Z M 1091 1479 L 1090 1480 L 1069 1482 L 1043 1488 L 1015 1498 Q 981 1512 955 1534 L 933 1554 L 622 1860 L 622 1862 L 652 1893 L 762 2003 L 1064 1707 L 1084 1689 Q 1092 1684 1104 1681 L 1123 1681 L 1128 1682 Q 1140 1686 1149 1693 L 1161 1708 L 1167 1722 L 1169 1732 L 1169 2347 L 1170 2347 L 1369 2347 L 1369 1716 L 1368 1715 L 1368 1705 L 1367 1704 L 1367 1697 L 1364 1680 L 1357 1654 L 1349 1633 Q 1331 1591 1302 1561 Q 1262 1517 1201 1494 L 1171 1485 L 1143 1480 L 1135 1480 L 1134 1479 L 1091 1479 Z " /></svg>