<svg width="1393" height="302" viewBox="0 0 1393 302" fill="none" xmlns="http://www.w3.org/2000/svg">
<path d="M467.201 241.2C450.312 241.2 435.556 237.822 422.934 231.067C410.489 224.133 400.889 214.355 394.133 201.733C387.378 189.11 384 174.355 384 157.465C384 140.576 387.289 125.998 393.867 113.732C400.622 101.287 410.134 91.6867 422.401 84.9311C434.667 78.1754 449.157 74.7976 465.868 74.7976C481.868 74.7976 495.646 77.9977 507.202 84.3977C518.758 90.6201 527.647 99.598 533.869 111.331C540.269 122.887 543.469 136.665 543.469 152.665V165.999H418.667C420.089 180.577 424.978 191.866 433.334 199.866C441.69 207.688 452.89 211.6 466.935 211.6C477.246 211.6 485.69 209.644 492.268 205.733C498.846 201.822 503.38 195.955 505.868 188.133H542.669C538.758 204.844 530.135 217.911 516.802 227.333C503.646 236.578 487.113 241.2 467.201 241.2ZM419.734 140.665H508.802C507.38 128.932 502.935 119.954 495.468 113.732C488.002 107.331 478.135 104.131 465.868 104.131C453.601 104.131 443.468 107.331 435.467 113.732C427.467 119.954 422.223 128.932 419.734 140.665Z" fill="white"/>
<path d="M691.655 302.001V214H690.588C685.788 222.711 678.943 229.467 670.054 234.267C661.165 238.889 650.498 241.2 638.054 241.2C622.942 241.2 609.876 237.822 598.853 231.067C588.009 224.311 579.653 214.711 573.786 202.266C568.097 189.644 565.253 174.888 565.253 157.999C565.253 141.11 568.186 126.443 574.053 113.998C579.92 101.554 588.542 91.9534 599.92 85.1978C611.298 78.2643 625.076 74.7976 641.254 74.7976C654.41 74.7976 665.61 77.2865 674.854 82.2644C684.277 87.0644 691.743 94.0868 697.255 103.331H708.455V77.9977H746.055V114.532H727.922V302.001H691.655ZM647.387 210C660.899 210 671.654 206.177 679.654 198.533C687.655 190.888 691.655 180.577 691.655 167.599V148.399C691.655 135.421 687.655 125.109 679.654 117.465C671.654 109.82 660.899 105.998 647.387 105.998C632.631 105.998 621.254 110.62 613.253 119.865C605.431 129.11 601.52 141.821 601.52 157.999C601.52 174.177 605.431 186.888 613.253 196.133C621.254 205.377 632.631 210 647.387 210Z" fill="white"/>
<path d="M842.957 240.933C821.623 240.933 805.001 235.156 793.089 223.6C781.356 212.044 775.489 196.311 775.489 176.399V77.9977H811.756V169.199C811.756 182.355 815.134 192.31 821.89 199.066C828.645 205.644 838.69 208.933 852.024 208.933C865.713 208.933 876.291 205.377 883.757 198.266C891.402 191.155 895.224 181.199 895.224 168.399V77.9977H931.491V201.466H949.892V238H912.291V212.666H901.091C895.046 221.911 887.313 228.933 877.891 233.733C868.468 238.533 856.824 240.933 842.957 240.933Z" fill="white"/>
<path d="M1054.93 241.2C1038.04 241.2 1023.29 237.822 1010.66 231.067C998.219 224.133 988.53 214.444 981.596 201.999C974.663 189.555 971.196 174.888 971.196 157.999C971.196 141.11 974.574 126.443 981.33 113.998C988.263 101.554 998.041 91.9534 1010.66 85.1978C1023.29 78.2643 1038.13 74.7976 1055.2 74.7976C1072.44 74.7976 1087.29 78.1754 1099.73 84.9311C1112.18 91.6867 1121.78 101.287 1128.53 113.732C1135.29 126.176 1138.67 140.932 1138.67 157.999C1138.67 174.888 1135.29 189.644 1128.53 202.266C1121.78 214.711 1112.09 224.311 1099.46 231.067C1087.02 237.822 1072.18 241.2 1054.93 241.2ZM1054.93 209.733C1070.04 209.733 1081.69 205.111 1089.86 195.866C1098.22 186.621 1102.4 173.999 1102.4 157.999C1102.4 141.643 1098.22 128.932 1089.86 119.865C1081.69 110.798 1070.04 106.265 1054.93 106.265C1040 106.265 1028.35 110.887 1020 120.132C1011.64 129.198 1007.46 141.821 1007.46 157.999C1007.46 173.999 1011.64 186.621 1020 195.866C1028.35 205.111 1040 209.733 1054.93 209.733Z" fill="white"/>
<path d="M1235.24 241.2C1212.49 241.2 1194.53 236.489 1181.37 227.067C1168.22 217.466 1161.02 204.133 1159.77 187.066H1195.24C1196.49 195.777 1200.49 202.266 1207.24 206.533C1214 210.8 1223.77 212.933 1236.58 212.933C1258.62 212.933 1269.64 206.355 1269.64 193.199C1269.64 187.866 1267.95 183.688 1264.58 180.666C1261.2 177.644 1255.6 175.421 1247.78 173.999L1212.31 167.332C1181.55 161.466 1166.17 146.888 1166.17 123.598C1166.17 108.665 1172.04 96.8424 1183.77 88.1311C1195.51 79.2421 1211.6 74.7976 1232.04 74.7976C1252.66 74.7976 1269.02 79.331 1281.11 88.3978C1293.38 97.4646 1300.22 110.087 1301.64 126.265H1266.71C1264.75 118.087 1260.84 112.043 1254.98 108.131C1249.29 104.22 1241.02 102.265 1230.17 102.265C1220.57 102.265 1213.2 103.865 1208.04 107.065C1202.89 110.265 1200.31 114.887 1200.31 120.932C1200.31 125.376 1201.91 129.021 1205.11 131.865C1208.49 134.532 1213.73 136.576 1220.84 137.999L1256.58 144.932C1272.75 147.954 1284.58 153.199 1292.04 160.666C1299.51 167.955 1303.24 177.821 1303.24 190.266C1303.24 206.266 1297.38 218.8 1285.64 227.867C1273.91 236.756 1257.11 241.2 1235.24 241.2Z" fill="white"/>
<path d="M1319.07 126.004V116.324H1327.87V126.004H1319.07Z" fill="white"/>
<path d="M1337.22 126.804L1355.7 79.2863H1361.08L1379.49 126.804H1371.92L1358.42 89.3762L1344.86 126.804H1337.22ZM1348.13 116.237L1350.24 110.033H1366.47L1368.79 116.237H1348.13Z" fill="white"/>
<path d="M1385.65 126.804V79.2863H1392.61V126.804H1385.65Z" fill="white"/>
<path d="M24.1982 276.743C43.196 283.874 64.5653 287.437 88.3063 287.437C124.523 287.437 154.69 279.284 178.793 262.998C202.891 246.698 218.497 223.97 225.622 194.787H158.665C154.138 208.446 145.882 218.691 133.914 225.513C121.956 232.35 106.58 235.758 87.8339 235.758C70.0873 235.758 54.8429 232.422 42.0856 225.769L24.2033 276.743H24.1982Z" fill="white"/>
<path d="M227.068 132.863C227.068 104.934 221.33 80.8038 209.854 60.4775C198.363 40.1512 182.109 24.4774 161.081 13.4512C149.113 7.17881 135.838 2.69507 121.257 0L103.907 49.4803C118.086 51.727 130.029 56.7893 139.737 64.672C153.318 75.6837 161.398 91.4394 163.995 111.915H82.0049L66.4941 156.145H227.068V132.868V132.863Z" fill="white"/>
<path d="M85.8833 48.1353C63.5694 48.1353 45.1294 53.6411 30.5632 64.6672C16.0122 75.6789 6.46558 91.4347 1.93848 111.91H82.0094L103.911 49.4756C98.2638 48.5788 92.2494 48.1353 85.8833 48.1353Z" fill="white"/>
<path d="M0.00502944 156.14C2.58764 181.601 11.4811 201.238 26.6853 215.037C31.333 219.25 36.458 222.828 42.0754 225.769L66.4947 156.14H0H0.00502944Z" fill="white"/>
</svg>
